{
	"asset":{
		"generator":"Khronos glTF Blender I/O v4.0.44",
		"version":"2.0"
	},
	"scene":0,
	"scenes":[
		{
			"name":"Scene",
			"nodes":[
				5
			]
		}
	],
	"nodes":[
		{
			"mesh":0,
			"name":"Object_2"
		},
		{
			"name":"Object_3"
		},
		{
			"mesh":1,
			"name":"Object_4"
		},
		{
			"mesh":2,
			"name":"Object_5"
		},
		{
			"children":[
				0,
				1,
				2,
				3
			],
			"name":"SF.obj.cleaner.materialmerger.gles"
		},
		{
			"children":[
				4
			],
			"name":"Sketchfab_model",
			"rotation":[
				-0.70710688829422,
				0,
				0,
				0.7071066498756409
			]
		}
	],
	"materials":[
		{
			"doubleSided":true,
			"name":"Material.001",
			"pbrMetallicRoughness":{
				"baseColorFactor":[
					0.9041773676872253,
					0.0057232980616390705,
					0.0057232980616390705,
					1
				],
				"metallicFactor":0,
				"roughnessFactor":0
			}
		},
		{
			"doubleSided":true,
			"name":"snow",
			"pbrMetallicRoughness":{
				"baseColorFactor":[
					0.9819772243499756,
					0.9142303466796875,
					0.9142303466796875,
					1
				],
				"metallicFactor":0,
				"roughnessFactor":0
			}
		},
		{
			"doubleSided":true,
			"name":"Material.002",
			"pbrMetallicRoughness":{
				"baseColorFactor":[
					0.8853105902671814,
					0.5089220404624939,
					0.01450582779943943,
					1
				],
				"metallicFactor":0,
				"roughnessFactor":0.6000000238418579
			}
		}
	],
	"meshes":[
		{
			"name":"Object_0",
			"primitives":[
				{
					"attributes":{
						"POSITION":0,
						"NORMAL":1,
						"TEXCOORD_0":2
					},
					"indices":3,
					"material":0
				}
			]
		},
		{
			"name":"Object_2",
			"primitives":[
				{
					"attributes":{
						"POSITION":4,
						"NORMAL":5,
						"TEXCOORD_0":6
					},
					"indices":7,
					"material":1
				}
			]
		},
		{
			"name":"Object_3",
			"primitives":[
				{
					"attributes":{
						"POSITION":8,
						"NORMAL":9,
						"TEXCOORD_0":10
					},
					"indices":11,
					"material":2
				}
			]
		}
	],
	"accessors":[
		{
			"bufferView":0,
			"componentType":5126,
			"count":2531,
			"max":[
				1.5757699012756348,
				1.6189409494400024,
				1.9562269449234009
			],
			"min":[
				-1.5764403343200684,
				-1.5332679748535156,
				-1.5424519777297974
			],
			"type":"VEC3"
		},
		{
			"bufferView":1,
			"componentType":5126,
			"count":2531,
			"type":"VEC3"
		},
		{
			"bufferView":2,
			"componentType":5126,
			"count":2531,
			"type":"VEC2"
		},
		{
			"bufferView":3,
			"componentType":5123,
			"count":13242,
			"type":"SCALAR"
		},
		{
			"bufferView":4,
			"componentType":5126,
			"count":17488,
			"max":[
				-0.7817791700363159,
				0.5394020080566406,
				0.9878910183906555
			],
			"min":[
				-1.623824954032898,
				-1.1506270170211792,
				-0.910975992679596
			],
			"type":"VEC3"
		},
		{
			"bufferView":5,
			"componentType":5126,
			"count":17488,
			"type":"VEC3"
		},
		{
			"bufferView":6,
			"componentType":5126,
			"count":17488,
			"type":"VEC2"
		},
		{
			"bufferView":7,
			"componentType":5123,
			"count":101970,
			"type":"SCALAR"
		},
		{
			"bufferView":8,
			"componentType":5126,
			"count":12454,
			"max":[
				0.3531155586242676,
				0.3962869942188263,
				2.3331708908081055
			],
			"min":[
				-0.35378599166870117,
				-0.3106139898300171,
				1.63413405418396
			],
			"type":"VEC3"
		},
		{
			"bufferView":9,
			"componentType":5126,
			"count":12454,
			"type":"VEC3"
		},
		{
			"bufferView":10,
			"componentType":5126,
			"count":12454,
			"type":"VEC2"
		},
		{
			"bufferView":11,
			"componentType":5123,
			"count":14778,
			"type":"SCALAR"
		}
	],
	"bufferViews":[
		{
			"buffer":0,
			"byteLength":30372,
			"byteOffset":0,
			"target":34962
		},
		{
			"buffer":0,
			"byteLength":30372,
			"byteOffset":30372,
			"target":34962
		},
		{
			"buffer":0,
			"byteLength":20248,
			"byteOffset":60744,
			"target":34962
		},
		{
			"buffer":0,
			"byteLength":26484,
			"byteOffset":80992,
			"target":34963
		},
		{
			"buffer":0,
			"byteLength":209856,
			"byteOffset":107476,
			"target":34962
		},
		{
			"buffer":0,
			"byteLength":209856,
			"byteOffset":317332,
			"target":34962
		},
		{
			"buffer":0,
			"byteLength":139904,
			"byteOffset":527188,
			"target":34962
		},
		{
			"buffer":0,
			"byteLength":203940,
			"byteOffset":667092,
			"target":34963
		},
		{
			"buffer":0,
			"byteLength":149448,
			"byteOffset":871032,
			"target":34962
		},
		{
			"buffer":0,
			"byteLength":149448,
			"byteOffset":1020480,
			"target":34962
		},
		{
			"buffer":0,
			"byteLength":99632,
			"byteOffset":1169928,
			"target":34962
		},
		{
			"buffer":0,
			"byteLength":29556,
			"byteOffset":1269560,
			"target":34963
		}
	],
	"buffers":[
		{
			"byteLength":1299116,
			"uri":"new-ball.bin"
		}
	]
}
