{
  "accessors": [
    {
      "bufferView": 2,
      "componentType": 5126,
      "count": 421,
      "max": [
        1.1644270420074463,
        0.6296616792678833,
        0.7128592729568481
      ],
      "min": [
        0.9999998211860657,
        -0.6422425508499146,
        -0.7036355137825012
      ],
      "type": "VEC3"
    },
    {
      "bufferView": 2,
      "byteOffset": 5052,
      "componentType": 5126,
      "count": 421,
      "max": [
        1.0,
        1.0,
        1.0
      ],
      "min": [
        -3.793041116750828e-07,
        -1.0,
        -1.0
      ],
      "type": "VEC3"
    },
    {
      "bufferView": 1,
      "componentType": 5126,
      "count": 421,
      "max": [
        0.5891074538230896,
        0.7041561603546143
      ],
      "min": [
        0.0,
        0.0
      ],
      "type": "VEC2"
    },
    {
      "bufferView": 0,
      "componentType": 5125,
      "count": 630,
      "type": "SCALAR"
    },
    {
      "bufferView": 2,
      "byteOffset": 10104,
      "componentType": 5126,
      "count": 430,
      "max": [
        1.1644270420074463,
        0.6296616792678833,
        0.7128592729568481
      ],
      "min": [
        0.9999998211860657,
        -0.6422425508499146,
        -0.7036355137825012
      ],
      "type": "VEC3"
    },
    {
      "bufferView": 2,
      "byteOffset": 15264,
      "componentType": 5126,
      "count": 430,
      "max": [
        1.0,
        1.0,
        1.0
      ],
      "min": [
        -3.793041116750828e-07,
        -1.0,
        -1.0
      ],
      "type": "VEC3"
    },
    {
      "bufferView": 1,
      "byteOffset": 3368,
      "componentType": 5126,
      "count": 430,
      "max": [
        0.5891074538230896,
        0.7041561603546143
      ],
      "min": [
        0.0,
        0.0
      ],
      "type": "VEC2"
    },
    {
      "bufferView": 0,
      "byteOffset": 2520,
      "componentType": 5125,
      "count": 648,
      "type": "SCALAR"
    },
    {
      "bufferView": 2,
      "byteOffset": 20424,
      "componentType": 5126,
      "count": 430,
      "max": [
        1.1644270420074463,
        0.6296616792678833,
        0.7128592729568481
      ],
      "min": [
        0.9999998211860657,
        -0.6422425508499146,
        -0.7036355137825012
      ],
      "type": "VEC3"
    },
    {
      "bufferView": 2,
      "byteOffset": 25584,
      "componentType": 5126,
      "count": 430,
      "max": [
        1.0,
        1.0,
        1.0
      ],
      "min": [
        -3.793041116750828e-07,
        -1.0,
        -1.0
      ],
      "type": "VEC3"
    },
    {
      "bufferView": 1,
      "byteOffset": 6808,
      "componentType": 5126,
      "count": 430,
      "max": [
        0.5891074538230896,
        0.7041561603546143
      ],
      "min": [
        0.0,
        0.0
      ],
      "type": "VEC2"
    },
    {
      "bufferView": 0,
      "byteOffset": 5112,
      "componentType": 5125,
      "count": 648,
      "type": "SCALAR"
    },
    {
      "bufferView": 2,
      "byteOffset": 30744,
      "componentType": 5126,
      "count": 430,
      "max": [
        1.1644270420074463,
        0.6296616792678833,
        0.7128592729568481
      ],
      "min": [
        0.9999998211860657,
        -0.6422425508499146,
        -0.7036355137825012
      ],
      "type": "VEC3"
    },
    {
      "bufferView": 2,
      "byteOffset": 35904,
      "componentType": 5126,
      "count": 430,
      "max": [
        1.0,
        1.0,
        1.0
      ],
      "min": [
        -3.793041116750828e-07,
        -1.0,
        -1.0
      ],
      "type": "VEC3"
    },
    {
      "bufferView": 1,
      "byteOffset": 10248,
      "componentType": 5126,
      "count": 430,
      "max": [
        0.5891074538230896,
        0.7041561603546143
      ],
      "min": [
        0.0,
        0.0
      ],
      "type": "VEC2"
    },
    {
      "bufferView": 0,
      "byteOffset": 7704,
      "componentType": 5125,
      "count": 648,
      "type": "SCALAR"
    },
    {
      "bufferView": 2,
      "byteOffset": 41064,
      "componentType": 5126,
      "count": 3132,
      "max": [
        1.0000001192092896,
        1.0,
        0.9999995231628418
      ],
      "min": [
        -1.0000001192092896,
        -1.0,
        -1.0000004768371582
      ],
      "type": "VEC3"
    },
    {
      "bufferView": 2,
      "byteOffset": 78648,
      "componentType": 5126,
      "count": 3132,
      "max": [
        1.0,
        1.0,
        1.0
      ],
      "min": [
        -1.0,
        -1.0,
        -1.0
      ],
      "type": "VEC3"
    },
    {
      "bufferView": 1,
      "byteOffset": 13688,
      "componentType": 5126,
      "count": 3132,
      "max": [
        0.7499486207962036,
        0.8749486207962036
      ],
      "min": [
        0.0,
        0.0
      ],
      "type": "VEC2"
    },
    {
      "bufferView": 0,
      "byteOffset": 10296,
      "componentType": 5125,
      "count": 17445,
      "type": "SCALAR"
    },
    {
      "bufferView": 2,
      "byteOffset": 116232,
      "componentType": 5126,
      "count": 756,
      "max": [
        1.0000001192092896,
        1.0,
        0.7906054854393005
      ],
      "min": [
        -1.0000001192092896,
        -1.0,
        -0.7833876609802246
      ],
      "type": "VEC3"
    },
    {
      "bufferView": 2,
      "byteOffset": 125304,
      "componentType": 5126,
      "count": 756,
      "max": [
        1.0,
        1.0,
        0.9267863035202026
      ],
      "min": [
        -1.0,
        -1.0,
        -0.9267884492874146
      ],
      "type": "VEC3"
    },
    {
      "bufferView": 1,
      "byteOffset": 38744,
      "componentType": 5126,
      "count": 756,
      "max": [
        0.5967613458633423,
        0.786283016204834
      ],
      "min": [
        0.4039679765701294,
        0.46371692419052124
      ],
      "type": "VEC2"
    },
    {
      "bufferView": 0,
      "byteOffset": 80076,
      "componentType": 5125,
      "count": 1140,
      "type": "SCALAR"
    }
  ],
  "asset": {
    "extras": {
      "author": "GabyHerofly (https://sketchfab.com/gabrielvernet26)",
      "license": "CC-BY-4.0 (http://creativecommons.org/licenses/by/4.0/)",
      "source": "https://sketchfab.com/3d-models/mario-block-5b05b1a00eb342e6b2f80a66dca07fae",
      "title": "Mario Block"
    },
    "generator": "Sketchfab-15.13.0",
    "version": "2.0"
  },
  "bufferViews": [
    {
      "buffer": 0,
      "byteLength": 84636,
      "name": "floatBufferViews",
      "target": 34963
    },
    {
      "buffer": 0,
      "byteLength": 44792,
      "byteOffset": 84636,
      "byteStride": 8,
      "name": "floatBufferViews",
      "target": 34962
    },
    {
      "buffer": 0,
      "byteLength": 134376,
      "byteOffset": 129428,
      "byteStride": 12,
      "name": "floatBufferViews",
      "target": 34962
    }
  ],
  "buffers": [
    {
      "byteLength": 263804,
      "uri": "scene.bin"
    }
  ],
  "materials": [
    {
      "doubleSided": true,
      "name": "Material.017",
      "pbrMetallicRoughness": {
        "baseColorFactor": [
          0.8,
          0.8,
          0.8,
          1.0
        ],
        "metallicFactor": 0.0,
        "roughnessFactor": 0.8211145618000169
      }
    },
    {
      "doubleSided": true,
      "name": "Material.016",
      "pbrMetallicRoughness": {
        "baseColorFactor": [
          0.8,
          0.8,
          0.8,
          1.0
        ],
        "metallicFactor": 0.0,
        "roughnessFactor": 0.8211145618000169
      }
    },
    {
      "doubleSided": true,
      "name": "Material.006",
      "pbrMetallicRoughness": {
        "baseColorFactor": [
          0.8,
          0.8,
          0.8,
          1.0
        ],
        "metallicFactor": 0.0,
        "roughnessFactor": 0.7885623807867361
      }
    },
    {
      "doubleSided": true,
      "name": "Material.015",
      "pbrMetallicRoughness": {
        "baseColorFactor": [
          0.8,
          0.8,
          0.8,
          1.0
        ],
        "metallicFactor": 0.0,
        "roughnessFactor": 0.8211145618000169
      }
    },
    {
      "doubleSided": true,
      "name": "Material.007",
      "pbrMetallicRoughness": {
        "baseColorFactor": [
          1.0,
          0.650331,
          0.0,
          1.0
        ],
        "metallicFactor": 0.0,
        "roughnessFactor": 0.8809022847894865
      }
    }
  ],
  "meshes": [
    {
      "name": "Cube.001_Material.017_0",
      "primitives": [
        {
          "attributes": {
            "NORMAL": 1,
            "POSITION": 0,
            "TEXCOORD_0": 2
          },
          "indices": 3,
          "material": 0,
          "mode": 4
        }
      ]
    },
    {
      "name": "Cube.002_Material.016_0",
      "primitives": [
        {
          "attributes": {
            "NORMAL": 5,
            "POSITION": 4,
            "TEXCOORD_0": 6
          },
          "indices": 7,
          "material": 1,
          "mode": 4
        }
      ]
    },
    {
      "name": "Cube.003_Material.006_0",
      "primitives": [
        {
          "attributes": {
            "NORMAL": 9,
            "POSITION": 8,
            "TEXCOORD_0": 10
          },
          "indices": 11,
          "material": 2,
          "mode": 4
        }
      ]
    },
    {
      "name": "Cube.004_Material.015_0",
      "primitives": [
        {
          "attributes": {
            "NORMAL": 13,
            "POSITION": 12,
            "TEXCOORD_0": 14
          },
          "indices": 15,
          "material": 3,
          "mode": 4
        }
      ]
    },
    {
      "name": "Cube.005_Material.007_0",
      "primitives": [
        {
          "attributes": {
            "NORMAL": 17,
            "POSITION": 16,
            "TEXCOORD_0": 18
          },
          "indices": 19,
          "material": 4,
          "mode": 4
        }
      ]
    },
    {
      "name": "Cube.006_Material.007_0",
      "primitives": [
        {
          "attributes": {
            "NORMAL": 21,
            "POSITION": 20,
            "TEXCOORD_0": 22
          },
          "indices": 23,
          "material": 4,
          "mode": 4
        }
      ]
    }
  ],
  "nodes": [
    {
      "children": [
        1
      ],
      "matrix": [
        1.0,
        0.0,
        0.0,
        0.0,
        0.0,
        2.220446049250313e-16,
        -1.0,
        0.0,
        0.0,
        1.0,
        2.220446049250313e-16,
        0.0,
        0.0,
        0.0,
        0.0,
        1.0
      ],
      "name": "Sketchfab_model"
    },
    {
      "children": [
        2
      ],
      "matrix": [
        0.009999999776482582,
        0.0,
        0.0,
        0.0,
        0.0,
        0.0,
        0.009999999776482582,
        0.0,
        0.0,
        -0.009999999776482582,
        0.0,
        0.0,
        0.0,
        0.0,
        0.0,
        1.0
      ],
      "name": "cd511bbaf06a49698dc7bab3ae63188e.fbx"
    },
    {
      "children": [
        3,
        5,
        7,
        9,
        11,
        13
      ],
      "name": "RootNode"
    },
    {
      "children": [
        4
      ],
      "matrix": [
        74.38262939453125,
        0.0,
        0.0,
        0.0,
        0.0,
        -1.2118468515907841e-05,
        -74.38262939453027,
        0.0,
        0.0,
        74.38262939453027,
        -1.2118468515907841e-05,
        0.0,
        8.882975578308105,
        892.8060302734375,
        2.3372292518615723,
        1.0
      ],
      "name": "Cube.001"
    },
    {
      "mesh": 0,
      "name": "Cube.001_Material.017_0"
    },
    {
      "children": [
        6
      ],
      "matrix": [
        3.251368127382974e-06,
        -8.258130778596856e-15,
        -74.38262939453118,
        0.0,
        -74.38262939453111,
        -3.251368127382974e-06,
        -3.2513681315120395e-06,
        0.0,
        -3.2513681315120395e-06,
        74.38262939453118,
        -1.486463540147434e-13,
        0.0,
        8.882975578308105,
        892.8060302734375,
        2.3372292518615723,
        1.0
      ],
      "name": "Cube.002"
    },
    {
      "mesh": 1,
      "name": "Cube.002_Material.016_0"
    },
    {
      "children": [
        8
      ],
      "matrix": [
        -74.38262939452561,
        9.109243328610362e-15,
        2.8965665341474553e-05,
        0.0,
        2.8965665341474472e-05,
        5.615732302432547e-06,
        74.3826293945254,
        0.0,
        -2.1777376513980308e-12,
        74.38262939453102,
        -5.615732294174416e-06,
        0.0,
        8.882975578308105,
        892.8060302734375,
        2.3372292518615723,
        1.0
      ],
      "name": "Cube.003"
    },
    {
      "mesh": 2,
      "name": "Cube.003_Material.006_0"
    },
    {
      "children": [
        10
      ],
      "matrix": [
        3.251368127382974e-06,
        8.258130778596856e-15,
        74.38262939453118,
        0.0,
        74.38262939453111,
        -3.251368127382974e-06,
        -3.2513681315120395e-06,
        0.0,
        3.2513681315120395e-06,
        74.38262939453118,
        -1.486463540147434e-13,
        0.0,
        8.882975578308105,
        892.8060302734375,
        2.3372292518615723,
        1.0
      ],
      "name": "Cube.004"
    },
    {
      "mesh": 3,
      "name": "Cube.004_Material.015_0"
    },
    {
      "children": [
        12
      ],
      "matrix": [
        74.38262939453125,
        0.0,
        0.0,
        0.0,
        0.0,
        -1.2118468515907841e-05,
        -74.38262939453027,
        0.0,
        0.0,
        74.38262939453027,
        -1.2118468515907841e-05,
        0.0,
        8.882975578308105,
        892.8060302734375,
        2.3372292518615723,
        1.0
      ],
      "name": "Cube.005"
    },
    {
      "mesh": 4,
      "name": "Cube.005_Material.007_0"
    },
    {
      "children": [
        14
      ],
      "matrix": [
        74.38262939453125,
        0.0,
        0.0,
        0.0,
        0.0,
        -1.2118468515907841e-05,
        -74.38262939453027,
        0.0,
        0.0,
        74.38262939453027,
        -1.2118468515907841e-05,
        0.0,
        8.882975578308105,
        892.8060302734375,
        2.3372292518615723,
        1.0
      ],
      "name": "Cube.006"
    },
    {
      "mesh": 5,
      "name": "Cube.006_Material.007_0"
    }
  ],
  "scene": 0,
  "scenes": [
    {
      "name": "Sketchfab_Scene",
      "nodes": [
        0
      ]
    }
  ]
}
